0
SECTION
2
HEADER
9
$ACADVER
1
AC1009
9
$FILLMODE
70
1
9
$EXTMIN
10
44.84
20
88.02
30
0
9
$EXTMAX
10
482.6263
20
558.64
30
0
0
ENDSEC
0
SECTION
2
TABLES
0
TABLE
2
LTYPE
70
1
0
LTYPE
2
CONTINUOUS
70
0
3
Solid line
72
65
73
0
40
0
0
ENDTAB
0
TABLE
2
LAYER
70
7
0
LAYER
2
BUSBAR
70
0
62
1
6
CONTINUOUS
0
LAYER
2
CABLE
70
0
62
7
6
CONTINUOUS
0
LAYER
2
SYMBOL
70
0
62
3
6
CONTINUOUS
0
LAYER
2
TEXT
70
0
62
7
6
CONTINUOUS
0
LAYER
2
RESULT
70
0
62
4
6
CONTINUOUS
0
LAYER
2
FRAME
70
0
62
7
6
CONTINUOUS
0
LAYER
2
TITLE
70
0
62
7
6
CONTINUOUS
0
ENDTAB
0
TABLE
2
STYLE
70
1
0
STYLE
2
STANDARD
70
0
40
0
41
1
50
0
71
0
42
2.5
3
txt.shx
4

0
ENDTAB
0
ENDSEC
0
SECTION
2
ENTITIES
0
CIRCLE
8
SYMBOL
10
234
20
548
30
0
40
11
0
POLYLINE
8
CABLE
66
1
10
0
20
0
30
0
70
0
0
VERTEX
8
CABLE
10
229
20
548
30
0
0
VERTEX
8
CABLE
10
230.25
20
550.25
30
0
0
VERTEX
8
CABLE
10
230.875
20
550.8125
30
0
0
VERTEX
8
CABLE
10
231.5
20
551
30
0
0
VERTEX
8
CABLE
10
232.125
20
550.8125
30
0
0
VERTEX
8
CABLE
10
232.75
20
550.25
30
0
0
VERTEX
8
CABLE
10
234
20
548
30
0
0
VERTEX
8
CABLE
10
235.25
20
545.75
30
0
0
VERTEX
8
CABLE
10
235.875
20
545.1875
30
0
0
VERTEX
8
CABLE
10
236.5
20
545
30
0
0
VERTEX
8
CABLE
10
237.125
20
545.1875
30
0
0
VERTEX
8
CABLE
10
237.75
20
545.75
30
0
0
VERTEX
8
CABLE
10
239
20
548
30
0
0
SEQEND
8
CABLE
0
TEXT
8
TEXT
7
STANDARD
10
252
20
550
30
0
40
8.64
1
Utility
72
5
73
0
11
287.4265
21
550
31
0
0
TEXT
8
TEXT
7
STANDARD
10
252
20
536
30
0
40
7.92
1
11 kV
72
5
73
0
11
278.7826
21
536
31
0
0
LINE
8
CABLE
10
234
20
537
30
0
11
234
21
520
31
0
0
LINE
8
CABLE
10
234
20
520
30
0
11
234
21
500
31
0
0
CIRCLE
8
SYMBOL
10
234
20
486
30
0
40
14
0
CIRCLE
8
SYMBOL
10
234
20
470
30
0
40
14
0
TEXT
8
TEXT
7
STANDARD
10
258
20
484
30
0
40
8.64
1
TX-1
72
5
73
0
11
285.3924
21
484
31
0
0
TEXT
8
TEXT
7
STANDARD
10
258
20
470
30
0
40
7.92
1
1000 kVA - 5% Z
72
5
73
0
11
344.609
21
470
31
0
0
TEXT
8
TEXT
7
STANDARD
10
258
20
457
30
0
40
7.92
1
Dyn11 - 11 / 0.415 kV
72
5
73
0
11
363.2724
21
457
31
0
0
LINE
8
CABLE
10
234
20
456
30
0
11
234
21
308
31
0
0
TEXT
8
TEXT
7
STANDARD
10
196.296
20
346
30
0
40
7.92
1
415 V
72
5
73
0
11
226
21
346
31
0
0
LINE
8
CABLE
10
102
20
250
30
0
11
102
21
232
31
0
0
LINE
8
CABLE
10
102
20
232
30
0
11
102
21
229
31
0
0
POLYLINE
8
CABLE
66
1
10
0
20
0
30
0
70
0
0
VERTEX
8
CABLE
10
99
20
232
30
0
0
VERTEX
8
CABLE
10
105
20
226
30
0
0
SEQEND
8
CABLE
0
POLYLINE
8
CABLE
66
1
10
0
20
0
30
0
70
0
0
VERTEX
8
CABLE
10
105
20
232
30
0
0
VERTEX
8
CABLE
10
99
20
226
30
0
0
SEQEND
8
CABLE
0
LINE
8
CABLE
10
102
20
216
30
0
11
95
21
227
31
0
0
TEXT
8
TEXT
7
STANDARD
10
112
20
209
30
0
40
7.92
1
36 kA
72
5
73
0
11
142.6968
21
209
31
0
0
TEXT
8
TEXT
7
STANDARD
10
91.8307
20
237
30
0
40
7.92
1
1
72
5
73
0
11
97
21
237
31
0
0
LINE
8
CABLE
10
102
20
216
30
0
11
102
21
174
31
0
0
TEXT
8
TEXT
7
STANDARD
10
112
20
222
30
0
40
8.64
1
630A TPN MCCB
72
5
73
0
11
211.9188
21
222
31
0
0
TEXT
8
TEXT
7
STANDARD
10
109
20
190
30
0
40
6.48
1
3x4C 300mm2 CU/XLPE/SWA
72
5
73
0
11
222
21
190
31
0
0
TEXT
8
TEXT
7
STANDARD
10
109
20
180
30
0
40
6.48
1
+1C 150mm2 ECC - 200m
72
5
73
0
11
218.5767
21
180
31
0
0
LINE
8
CABLE
10
102
20
174
30
0
11
102
21
166
31
0
0
LINE
8
CABLE
10
102
20
174
30
0
11
102
21
158
31
0
0
POLYLINE
8
SYMBOL
66
1
10
0
20
0
30
0
70
0
0
VERTEX
8
SYMBOL
10
91
20
158
30
0
0
VERTEX
8
SYMBOL
10
91.6634
20
154.2378
30
0
0
VERTEX
8
SYMBOL
10
93.5735
20
150.9293
30
0
0
VERTEX
8
SYMBOL
10
96.5
20
148.4737
30
0
0
VERTEX
8
SYMBOL
10
100.0899
20
147.1671
30
0
0
VERTEX
8
SYMBOL
10
103.9101
20
147.1671
30
0
0
VERTEX
8
SYMBOL
10
107.5
20
148.4737
30
0
0
VERTEX
8
SYMBOL
10
110.4265
20
150.9293
30
0
0
VERTEX
8
SYMBOL
10
112.3366
20
154.2378
30
0
0
VERTEX
8
SYMBOL
10
113
20
158
30
0
0
SEQEND
8
SYMBOL
0
LINE
8
CABLE
10
91
20
158
30
0
11
113
21
158
31
0
0
TEXT
8
TEXT
7
STANDARD
10
95.4905
20
118
30
0
40
8.64
1
F1
72
5
73
0
11
108.5095
21
118
31
0
0
TEXT
8
TEXT
7
STANDARD
10
50.0551
20
104
30
0
40
7.92
1
Parallel armoured 
72
5
73
0
11
153.9449
21
104
31
0
0
TEXT
8
TEXT
7
STANDARD
10
48.325
20
90
30
0
40
7.92
1
TCL : 50.00 kW - - A
72
5
73
0
11
155.675
21
90
31
0
0
LINE
8
CABLE
10
234
20
250
30
0
11
234
21
232
31
0
0
LINE
8
CABLE
10
234
20
232
30
0
11
234
21
229
31
0
0
POLYLINE
8
CABLE
66
1
10
0
20
0
30
0
70
0
0
VERTEX
8
CABLE
10
231
20
232
30
0
0
VERTEX
8
CABLE
10
237
20
226
30
0
0
SEQEND
8
CABLE
0
POLYLINE
8
CABLE
66
1
10
0
20
0
30
0
70
0
0
VERTEX
8
CABLE
10
237
20
232
30
0
0
VERTEX
8
CABLE
10
231
20
226
30
0
0
SEQEND
8
CABLE
0
LINE
8
CABLE
10
234
20
216
30
0
11
227
21
227
31
0
0
TEXT
8
TEXT
7
STANDARD
10
244
20
209
30
0
40
7.92
1
36 kA - 30mA ELCB
72
5
73
0
11
346.3864
21
209
31
0
0
TEXT
8
TEXT
7
STANDARD
10
222.299
20
237
30
0
40
7.92
1
2
72
5
73
0
11
229
21
237
31
0
0
LINE
8
CABLE
10
234
20
216
30
0
11
234
21
174
31
0
0
TEXT
8
TEXT
7
STANDARD
10
244
20
222
30
0
40
8.64
1
40A TPN MCB
72
5
73
0
11
327.4181
21
222
31
0
0
TEXT
8
TEXT
7
STANDARD
10
291
20
190
30
0
40
6.48
1
4C 4mm2 CU/XLPE/SWA
72
5
73
0
11
354
21
190
31
0
0
TEXT
8
TEXT
7
STANDARD
10
291
20
180
30
0
40
6.48
1
+1C 4mm2 ECC - 25m
72
5
73
0
11
354
21
180
31
0
0
POLYLINE
8
CABLE
66
1
10
0
20
0
30
0
70
1
0
VERTEX
8
CABLE
10
241
20
211
30
0
0
VERTEX
8
CABLE
10
240.4672
20
209.7754
30
0
0
VERTEX
8
CABLE
10
238.9497
20
208.7373
30
0
0
VERTEX
8
CABLE
10
236.6788
20
208.0436
30
0
0
VERTEX
8
CABLE
10
234
20
207.8
30
0
0
VERTEX
8
CABLE
10
231.3212
20
208.0436
30
0
0
VERTEX
8
CABLE
10
229.0503
20
208.7373
30
0
0
VERTEX
8
CABLE
10
227.5328
20
209.7754
30
0
0
VERTEX
8
CABLE
10
227
20
211
30
0
0
VERTEX
8
CABLE
10
227.5328
20
212.2246
30
0
0
VERTEX
8
CABLE
10
229.0503
20
213.2627
30
0
0
VERTEX
8
CABLE
10
231.3212
20
213.9564
30
0
0
VERTEX
8
CABLE
10
234
20
214.2
30
0
0
VERTEX
8
CABLE
10
236.6788
20
213.9564
30
0
0
VERTEX
8
CABLE
10
238.9497
20
213.2627
30
0
0
VERTEX
8
CABLE
10
240.4672
20
212.2246
30
0
0
SEQEND
8
CABLE
0
CIRCLE
8
CABLE
10
234
20
188
30
0
40
4.5
0
LINE
8
CABLE
10
238.5
20
188
30
0
11
244
21
188
31
0
0
POLYLINE
8
SYMBOL
66
1
10
0
20
0
30
0
70
1
0
VERTEX
8
SYMBOL
10
244
20
194
30
0
0
VERTEX
8
SYMBOL
10
268
20
194
30
0
0
VERTEX
8
SYMBOL
10
268
20
182
30
0
0
VERTEX
8
SYMBOL
10
244
20
182
30
0
0
SEQEND
8
SYMBOL
0
TEXT
8
TEXT
7
STANDARD
10
246.8491
20
185
30
0
40
5.76
1
kWh
72
5
73
0
11
265.1509
21
185
31
0
0
TEXT
8
TEXT
7
STANDARD
10
271
20
185
30
0
40
6.48
1
CT
72
5
73
0
11
283.2603
21
185
31
0
0
LINE
8
CABLE
10
234
20
174
30
0
11
234
21
166
31
0
0
POLYLINE
8
SYMBOL
66
1
10
0
20
0
30
0
70
1
0
VERTEX
8
SYMBOL
10
220
20
168
30
0
0
VERTEX
8
SYMBOL
10
248
20
168
30
0
0
VERTEX
8
SYMBOL
10
248
20
144
30
0
0
VERTEX
8
SYMBOL
10
220
20
144
30
0
0
SEQEND
8
SYMBOL
0
TEXT
8
TEXT
7
STANDARD
10
228.5541
20
152
30
0
40
7.92
1
IT
72
5
73
0
11
239.4459
21
152
31
0
0
TEXT
8
TEXT
7
STANDARD
10
226.7247
20
118
30
0
40
8.64
1
F2
72
5
73
0
11
241.2753
21
118
31
0
0
TEXT
8
TEXT
7
STANDARD
10
205.5971
20
104
30
0
40
7.92
1
Metered IT
72
5
73
0
11
262.4029
21
104
31
0
0
TEXT
8
TEXT
7
STANDARD
10
181.1723
20
90
30
0
40
7.92
1
TCL : 10.00 kW - - A
72
5
73
0
11
286.8277
21
90
31
0
0
LINE
8
CABLE
10
366
20
250
30
0
11
366
21
232
31
0
0
LINE
8
CABLE
10
366
20
232
30
0
11
366
21
229
31
0
0
POLYLINE
8
CABLE
66
1
10
0
20
0
30
0
70
0
0
VERTEX
8
CABLE
10
363
20
232
30
0
0
VERTEX
8
CABLE
10
369
20
226
30
0
0
SEQEND
8
CABLE
0
POLYLINE
8
CABLE
66
1
10
0
20
0
30
0
70
0
0
VERTEX
8
CABLE
10
369
20
232
30
0
0
VERTEX
8
CABLE
10
363
20
226
30
0
0
SEQEND
8
CABLE
0
LINE
8
CABLE
10
366
20
216
30
0
11
359
21
227
31
0
0
TEXT
8
TEXT
7
STANDARD
10
376
20
209
30
0
40
7.92
1
36 kA
72
5
73
0
11
406.6968
21
209
31
0
0
TEXT
8
TEXT
7
STANDARD
10
354.0367
20
237
30
0
40
7.92
1
3
72
5
73
0
11
361
21
237
31
0
0
LINE
8
CABLE
10
366
20
216
30
0
11
366
21
174
31
0
0
TEXT
8
TEXT
7
STANDARD
10
376
20
222
30
0
40
8.64
1
80A TPN MCCB
72
5
73
0
11
468.2038
21
222
31
0
0
TEXT
8
TEXT
7
STANDARD
10
373
20
190
30
0
40
6.48
1
4C 16mm2 CU/XLPE/SWA
72
5
73
0
11
482.6263
21
190
31
0
0
TEXT
8
TEXT
7
STANDARD
10
373
20
180
30
0
40
6.48
1
+1C 16mm2 ECC - 20m
72
5
73
0
11
471.0751
21
180
31
0
0
LINE
8
CABLE
10
366
20
175
30
0
11
359
21
183
31
0
0
TEXT
8
TEXT
7
STANDARD
10
376
20
171
30
0
40
6.48
1
80A TPN ISOLATOR (W/P)
72
5
73
0
11
482
21
171
31
0
0
LINE
8
CABLE
10
366
20
174
30
0
11
366
21
166
31
0
0
LINE
8
CABLE
10
366
20
174
30
0
11
366
21
166
31
0
0
CIRCLE
8
SYMBOL
10
366
20
156
30
0
40
10
0
POLYLINE
8
CABLE
66
1
10
0
20
0
30
0
70
0
0
VERTEX
8
CABLE
10
359
20
163
30
0
0
VERTEX
8
CABLE
10
373
20
149
30
0
0
SEQEND
8
CABLE
0
POLYLINE
8
CABLE
66
1
10
0
20
0
30
0
70
0
0
VERTEX
8
CABLE
10
373
20
163
30
0
0
VERTEX
8
CABLE
10
359
20
149
30
0
0
SEQEND
8
CABLE
0
TEXT
8
TEXT
7
STANDARD
10
358.5758
20
118
30
0
40
8.64
1
F3
72
5
73
0
11
373.4242
21
118
31
0
0
TEXT
8
TEXT
7
STANDARD
10
331.0167
20
104
30
0
40
7.92
1
Local lighting
72
5
73
0
11
400.9833
21
104
31
0
0
TEXT
8
TEXT
7
STANDARD
10
313.1723
20
90
30
0
40
7.92
1
TCL : 10.00 kW - - A
72
5
73
0
11
418.8277
21
90
31
0
0
POLYLINE
8
BUSBAR
66
1
10
0
20
0
30
0
70
0
40
4
41
4
0
VERTEX
8
BUSBAR
10
51.84
20
250
30
0
0
VERTEX
8
BUSBAR
10
416.16
20
250
30
0
0
SEQEND
8
BUSBAR
0
LINE
8
CABLE
10
234
20
272
30
0
11
234
21
250
31
0
0
POLYLINE
8
CABLE
66
1
10
0
20
0
30
0
70
1
0
VERTEX
8
CABLE
10
44.84
20
334
30
0
0
VERTEX
8
CABLE
10
423.16
20
334
30
0
0
VERTEX
8
CABLE
10
423.16
20
203
30
0
0
VERTEX
8
CABLE
10
44.84
20
203
30
0
0
SEQEND
8
CABLE
0
POLYLINE
8
CABLE
66
1
10
0
20
0
30
0
70
0
0
VERTEX
8
CABLE
10
229
20
338
30
0
0
VERTEX
8
CABLE
10
230.125
20
336
30
0
0
VERTEX
8
CABLE
10
230.5
20
334
30
0
0
VERTEX
8
CABLE
10
230.125
20
332
30
0
0
VERTEX
8
CABLE
10
229
20
330
30
0
0
SEQEND
8
CABLE
0
POLYLINE
8
CABLE
66
1
10
0
20
0
30
0
70
0
0
VERTEX
8
CABLE
10
239
20
338
30
0
0
VERTEX
8
CABLE
10
237.875
20
336
30
0
0
VERTEX
8
CABLE
10
237.5
20
334
30
0
0
VERTEX
8
CABLE
10
237.875
20
332
30
0
0
VERTEX
8
CABLE
10
239
20
330
30
0
0
SEQEND
8
CABLE
0
POLYLINE
8
CABLE
66
1
10
0
20
0
30
0
70
0
0
VERTEX
8
CABLE
10
97
20
207
30
0
0
VERTEX
8
CABLE
10
98.125
20
205
30
0
0
VERTEX
8
CABLE
10
98.5
20
203
30
0
0
VERTEX
8
CABLE
10
98.125
20
201
30
0
0
VERTEX
8
CABLE
10
97
20
199
30
0
0
SEQEND
8
CABLE
0
POLYLINE
8
CABLE
66
1
10
0
20
0
30
0
70
0
0
VERTEX
8
CABLE
10
107
20
207
30
0
0
VERTEX
8
CABLE
10
105.875
20
205
30
0
0
VERTEX
8
CABLE
10
105.5
20
203
30
0
0
VERTEX
8
CABLE
10
105.875
20
201
30
0
0
VERTEX
8
CABLE
10
107
20
199
30
0
0
SEQEND
8
CABLE
0
POLYLINE
8
CABLE
66
1
10
0
20
0
30
0
70
0
0
VERTEX
8
CABLE
10
229
20
207
30
0
0
VERTEX
8
CABLE
10
230.125
20
205
30
0
0
VERTEX
8
CABLE
10
230.5
20
203
30
0
0
VERTEX
8
CABLE
10
230.125
20
201
30
0
0
VERTEX
8
CABLE
10
229
20
199
30
0
0
SEQEND
8
CABLE
0
POLYLINE
8
CABLE
66
1
10
0
20
0
30
0
70
0
0
VERTEX
8
CABLE
10
239
20
207
30
0
0
VERTEX
8
CABLE
10
237.875
20
205
30
0
0
VERTEX
8
CABLE
10
237.5
20
203
30
0
0
VERTEX
8
CABLE
10
237.875
20
201
30
0
0
VERTEX
8
CABLE
10
239
20
199
30
0
0
SEQEND
8
CABLE
0
POLYLINE
8
CABLE
66
1
10
0
20
0
30
0
70
0
0
VERTEX
8
CABLE
10
361
20
207
30
0
0
VERTEX
8
CABLE
10
362.125
20
205
30
0
0
VERTEX
8
CABLE
10
362.5
20
203
30
0
0
VERTEX
8
CABLE
10
362.125
20
201
30
0
0
VERTEX
8
CABLE
10
361
20
199
30
0
0
SEQEND
8
CABLE
0
POLYLINE
8
CABLE
66
1
10
0
20
0
30
0
70
0
0
VERTEX
8
CABLE
10
371
20
207
30
0
0
VERTEX
8
CABLE
10
369.875
20
205
30
0
0
VERTEX
8
CABLE
10
369.5
20
203
30
0
0
VERTEX
8
CABLE
10
369.875
20
201
30
0
0
VERTEX
8
CABLE
10
371
20
199
30
0
0
SEQEND
8
CABLE
0
POLYLINE
8
SYMBOL
66
1
10
0
20
0
30
0
70
1
0
VERTEX
8
SYMBOL
10
246
20
410
30
0
0
VERTEX
8
SYMBOL
10
364
20
410
30
0
0
VERTEX
8
SYMBOL
10
364
20
340
30
0
0
VERTEX
8
SYMBOL
10
246
20
340
30
0
0
SEQEND
8
SYMBOL
0
TEXT
8
TEXT
7
STANDARD
10
252
20
397
30
0
40
8.64
1
MDB-1
72
5
73
0
11
291.5108
21
397
31
0
0
TEXT
8
TEXT
7
STANDARD
10
252
20
383
30
0
40
7.92
1
LOC : Main building -
72
5
73
0
11
372.6669
21
383
31
0
0
TEXT
8
TEXT
7
STANDARD
10
252
20
371
30
0
40
7.92
1
TCL : 70.00 kW
72
5
73
0
11
331.8939
21
371
31
0
0
TEXT
8
TEXT
7
STANDARD
10
252
20
359
30
0
40
7.92
1
DF : 1.00
72
5
73
0
11
297.836
21
359
31
0
0
TEXT
8
TEXT
7
STANDARD
10
252
20
347
30
0
40
7.92
1
MDL : 70.00 kW
72
5
73
0
11
334.9714
21
347
31
0
0
POLYLINE
8
SYMBOL
66
1
10
0
20
0
30
0
70
1
0
VERTEX
8
SYMBOL
10
172
20
308
30
0
0
VERTEX
8
SYMBOL
10
296
20
308
30
0
0
VERTEX
8
SYMBOL
10
296
20
272
30
0
0
VERTEX
8
SYMBOL
10
172
20
272
30
0
0
SEQEND
8
SYMBOL
0
TEXT
8
TEXT
7
STANDARD
10
180
20
292
30
0
40
8.64
1
MDB-1
72
5
73
0
11
219.5108
21
292
31
0
0
TEXT
8
TEXT
7
STANDARD
10
180
20
278
30
0
40
7.92
1
MDB - 1600 A
72
5
73
0
11
251.5124
21
278
31
0
0
TEXT
8
RESULT
7
STANDARD
10
302
20
297
30
0
40
7.56
1
7% loaded
72
5
73
0
11
355.0191
21
297
31
0
0
ENDSEC
0
EOF
