0
SECTION
2
HEADER
9
$ACADVER
1
AC1009
9
$FILLMODE
70
1
9
$EXTMIN
10
0
20
0
30
0
9
$EXTMAX
10
420
20
297
30
0
0
ENDSEC
0
SECTION
2
TABLES
0
TABLE
2
LTYPE
70
1
0
LTYPE
2
CONTINUOUS
70
0
3
Solid line
72
65
73
0
40
0
0
ENDTAB
0
TABLE
2
LAYER
70
9
0
LAYER
2
E-FRAME
70
0
62
7
6
CONTINUOUS
0
LAYER
2
E-TITLE
70
0
62
7
6
CONTINUOUS
0
LAYER
2
E-LEGEND
70
0
62
8
6
CONTINUOUS
0
LAYER
2
E-NOTES
70
0
62
7
6
CONTINUOUS
0
LAYER
2
E-SYMBOL
70
0
62
3
6
CONTINUOUS
0
LAYER
2
E-CABLE
70
0
62
7
6
CONTINUOUS
0
LAYER
2
E-BUSBAR
70
0
62
1
6
CONTINUOUS
0
LAYER
2
E-TEXT
70
0
62
7
6
CONTINUOUS
0
LAYER
2
E-RESULT
70
0
62
4
6
CONTINUOUS
0
ENDTAB
0
TABLE
2
STYLE
70
1
0
STYLE
2
STANDARD
70
0
40
0
41
1
50
0
71
0
42
2.5
3
txt.shx
4

0
ENDTAB
0
ENDSEC
0
SECTION
2
ENTITIES
0
POLYLINE
8
E-FRAME
66
1
10
0
20
0
30
0
70
1
0
VERTEX
8
E-FRAME
10
0
20
0
30
0
0
VERTEX
8
E-FRAME
10
420
20
0
30
0
0
VERTEX
8
E-FRAME
10
420
20
297
30
0
0
VERTEX
8
E-FRAME
10
0
20
297
30
0
0
SEQEND
8
E-FRAME
0
POLYLINE
8
E-FRAME
66
1
10
0
20
0
30
0
70
1
0
VERTEX
8
E-FRAME
10
20
20
10
30
0
0
VERTEX
8
E-FRAME
10
410
20
10
30
0
0
VERTEX
8
E-FRAME
10
410
20
287
30
0
0
VERTEX
8
E-FRAME
10
20
20
287
30
0
0
SEQEND
8
E-FRAME
0
POLYLINE
8
E-TITLE
66
1
10
0
20
0
30
0
70
1
0
VERTEX
8
E-TITLE
10
176
20
10
30
0
0
VERTEX
8
E-TITLE
10
410
20
10
30
0
0
VERTEX
8
E-TITLE
10
410
20
67.2
30
0
0
VERTEX
8
E-TITLE
10
176
20
67.2
30
0
0
SEQEND
8
E-TITLE
0
TEXT
8
E-TITLE
7
STANDARD
10
177.95
20
63.82
30
0
40
2.08
1
COMPANY / CONSULTANT
0
LINE
8
E-TITLE
10
176
20
56.8
30
0
11
410
21
56.8
31
0
0
TEXT
8
E-TITLE
7
STANDARD
10
177.95
20
53.42
30
0
40
2.08
1
PROJECT
0
TEXT
8
E-TITLE
7
STANDARD
10
177.95
20
48.22
30
0
40
3.12
1
DXF export clearance check
0
LINE
8
E-TITLE
10
332
20
46.4
30
0
11
332
21
56.8
31
0
0
TEXT
8
E-TITLE
7
STANDARD
10
333.95
20
53.42
30
0
40
2.08
1
OWNER
0
LINE
8
E-TITLE
10
176
20
46.4
30
0
11
410
21
46.4
31
0
0
TEXT
8
E-TITLE
7
STANDARD
10
177.95
20
43.02
30
0
40
2.08
1
DRAWING TITLE
0
TEXT
8
E-TITLE
7
STANDARD
10
177.95
20
36.52
30
0
40
4.16
1
CAD EXPORT CLEARANCE CHECK
0
LINE
8
E-TITLE
10
176
20
34.7
30
0
11
410
21
34.7
31
0
0
TEXT
8
E-TITLE
7
STANDARD
10
177.95
20
31.32
30
0
40
2.08
1
DRAWING NO.
0
TEXT
8
E-TITLE
7
STANDARD
10
177.95
20
26.9
30
0
40
2.47
1
DXF-001
0
LINE
8
E-TITLE
10
254
20
25.6
30
0
11
254
21
34.7
31
0
0
TEXT
8
E-TITLE
7
STANDARD
10
255.95
20
31.32
30
0
40
2.08
1
REVISION
0
TEXT
8
E-TITLE
7
STANDARD
10
255.95
20
26.9
30
0
40
2.47
1
-
0
LINE
8
E-TITLE
10
332
20
25.6
30
0
11
332
21
34.7
31
0
0
TEXT
8
E-TITLE
7
STANDARD
10
333.95
20
31.32
30
0
40
2.08
1
DATE
0
TEXT
8
E-TITLE
7
STANDARD
10
333.95
20
26.9
30
0
40
2.47
1
2026-10-04
0
LINE
8
E-TITLE
10
176
20
25.6
30
0
11
410
21
25.6
31
0
0
TEXT
8
E-TITLE
7
STANDARD
10
177.95
20
22.22
30
0
40
2.08
1
DRAWN
0
LINE
8
E-TITLE
10
254
20
17.8
30
0
11
254
21
25.6
31
0
0
TEXT
8
E-TITLE
7
STANDARD
10
255.95
20
22.22
30
0
40
2.08
1
CHECKED
0
LINE
8
E-TITLE
10
332
20
17.8
30
0
11
332
21
25.6
31
0
0
TEXT
8
E-TITLE
7
STANDARD
10
333.95
20
22.22
30
0
40
2.08
1
APPROVED
0
LINE
8
E-TITLE
10
176
20
17.8
30
0
11
410
21
17.8
31
0
0
TEXT
8
E-TITLE
7
STANDARD
10
177.95
20
14.42
30
0
40
2.08
1
SHEET
0
TEXT
8
E-TITLE
7
STANDARD
10
177.95
20
11.3
30
0
40
2.47
1
1 of 1 - A3 - Scale NTS
0
LINE
8
E-TITLE
10
332
20
10
30
0
11
332
21
17.8
31
0
0
TEXT
8
E-TITLE
7
STANDARD
10
333.95
20
14.42
30
0
40
2.08
1
SYSTEM
0
TEXT
8
E-TITLE
7
STANDARD
10
333.95
20
11.3
30
0
40
2.47
1
415 V, 3Ph + N, 50 Hz
0
POLYLINE
8
E-TITLE
66
1
10
0
20
0
30
0
70
1
0
VERTEX
8
E-TITLE
10
20
20
10
30
0
0
VERTEX
8
E-TITLE
10
176
20
10
30
0
0
VERTEX
8
E-TITLE
10
176
20
67.2
30
0
0
VERTEX
8
E-TITLE
10
20
20
67.2
30
0
0
SEQEND
8
E-TITLE
0
TEXT
8
E-TITLE
7
STANDARD
10
21.95
20
63.3
30
0
40
2.34
1
REV
0
TEXT
8
E-TITLE
7
STANDARD
10
35.6
20
63.3
30
0
40
2.34
1
DATE
0
TEXT
8
E-TITLE
7
STANDARD
10
63.68
20
63.3
30
0
40
2.34
1
DESCRIPTION
0
LINE
8
E-TITLE
10
20
20
61.74
30
0
11
176
21
61.74
31
0
0
TEXT
8
E-TITLE
7
STANDARD
10
21.95
20
57.84
30
0
40
2.6
1
-
0
TEXT
8
E-TITLE
7
STANDARD
10
63.68
20
57.84
30
0
40
2.6
1
Not issued
0
CIRCLE
8
E-SYMBOL
10
212.7495
20
275.7481
30
0
40
4.126
0
POLYLINE
8
E-CABLE
66
1
10
0
20
0
30
0
70
0
0
VERTEX
8
E-CABLE
10
210.874
20
275.7481
30
0
0
VERTEX
8
E-CABLE
10
211.3429
20
276.592
30
0
0
VERTEX
8
E-CABLE
10
211.5773
20
276.803
30
0
0
VERTEX
8
E-CABLE
10
211.8118
20
276.8733
30
0
0
VERTEX
8
E-CABLE
10
212.0462
20
276.803
30
0
0
VERTEX
8
E-CABLE
10
212.2806
20
276.592
30
0
0
VERTEX
8
E-CABLE
10
212.7495
20
275.7481
30
0
0
VERTEX
8
E-CABLE
10
213.2183
20
274.9041
30
0
0
VERTEX
8
E-CABLE
10
213.4528
20
274.6931
30
0
0
VERTEX
8
E-CABLE
10
213.6872
20
274.6228
30
0
0
VERTEX
8
E-CABLE
10
213.9216
20
274.6931
30
0
0
VERTEX
8
E-CABLE
10
214.1561
20
274.9041
30
0
0
VERTEX
8
E-CABLE
10
214.6249
20
275.7481
30
0
0
SEQEND
8
E-CABLE
0
TEXT
8
E-TEXT
7
STANDARD
10
219.5011
20
276.4982
30
0
40
3.2408
1
Utility
72
5
73
0
11
232.7891
21
276.4982
31
0
0
TEXT
8
E-TEXT
7
STANDARD
10
219.5011
20
271.247
30
0
40
2.9707
1
11 kV
72
5
73
0
11
229.5469
21
271.247
31
0
0
LINE
8
E-CABLE
10
212.7495
20
271.6221
30
0
11
212.7495
21
265.2456
31
0
0
LINE
8
E-CABLE
10
212.7495
20
265.2456
30
0
11
212.7495
21
257.7439
31
0
0
CIRCLE
8
E-SYMBOL
10
212.7495
20
252.4926
30
0
40
5.2512
0
CIRCLE
8
E-SYMBOL
10
212.7495
20
246.4912
30
0
40
5.2512
0
TEXT
8
E-TEXT
7
STANDARD
10
221.7516
20
251.7425
30
0
40
3.2408
1
TX-1
72
5
73
0
11
232.0261
21
251.7425
31
0
0
TEXT
8
E-TEXT
7
STANDARD
10
221.7516
20
246.4912
30
0
40
2.9707
1
1000 kVA - 5% Z
72
5
73
0
11
254.2376
21
246.4912
31
0
0
TEXT
8
E-TEXT
7
STANDARD
10
221.7516
20
241.6151
30
0
40
2.9707
1
Dyn11 - 11 / 0.415 kV
72
5
73
0
11
261.238
21
241.6151
31
0
0
LINE
8
E-CABLE
10
212.7495
20
241.24
30
0
11
212.7495
21
185.727
31
0
0
TEXT
8
E-TEXT
7
STANDARD
10
198.6071
20
199.9804
30
0
40
2.9707
1
415 V
72
5
73
0
11
209.7488
21
199.9804
31
0
0
LINE
8
E-CABLE
10
163.2379
20
163.9719
30
0
11
163.2379
21
157.2204
31
0
0
LINE
8
E-CABLE
10
163.2379
20
157.2204
30
0
11
163.2379
21
156.0951
31
0
0
POLYLINE
8
E-CABLE
66
1
10
0
20
0
30
0
70
0
0
VERTEX
8
E-CABLE
10
162.1126
20
157.2204
30
0
0
VERTEX
8
E-CABLE
10
164.3632
20
154.9698
30
0
0
SEQEND
8
E-CABLE
0
POLYLINE
8
E-CABLE
66
1
10
0
20
0
30
0
70
0
0
VERTEX
8
E-CABLE
10
164.3632
20
157.2204
30
0
0
VERTEX
8
E-CABLE
10
162.1126
20
154.9698
30
0
0
SEQEND
8
E-CABLE
0
LINE
8
E-CABLE
10
163.2379
20
151.2189
30
0
11
160.6123
21
155.3449
31
0
0
TEXT
8
E-TEXT
7
STANDARD
10
166.9888
20
148.5933
30
0
40
2.9707
1
36 kA
72
5
73
0
11
178.5028
21
148.5933
31
0
0
TEXT
8
E-TEXT
7
STANDARD
10
159.4235
20
159.0958
30
0
40
2.9707
1
1
72
5
73
0
11
161.3625
21
159.0958
31
0
0
LINE
8
E-CABLE
10
163.2379
20
151.2189
30
0
11
163.2379
21
135.4653
31
0
0
TEXT
8
E-TEXT
7
STANDARD
10
166.9888
20
153.4695
30
0
40
3.2408
1
630A TPN MCCB
72
5
73
0
11
204.4671
21
153.4695
31
0
0
TEXT
8
E-TEXT
7
STANDARD
10
165.8635
20
141.4667
30
0
40
2.4306
1
3x4C 300mm2 CU/XLPE/SWA
72
5
73
0
11
208.2484
21
141.4667
31
0
0
TEXT
8
E-TEXT
7
STANDARD
10
165.8635
20
137.7158
30
0
40
2.4306
1
+1C 150mm2 ECC - 200m
72
5
73
0
11
206.9644
21
137.7158
31
0
0
LINE
8
E-CABLE
10
163.2379
20
135.4653
30
0
11
163.2379
21
132.4646
31
0
0
LINE
8
E-CABLE
10
163.2379
20
135.4653
30
0
11
163.2379
21
129.4639
31
0
0
POLYLINE
8
E-SYMBOL
66
1
10
0
20
0
30
0
70
0
0
VERTEX
8
E-SYMBOL
10
159.1119
20
129.4639
30
0
0
VERTEX
8
E-SYMBOL
10
159.3608
20
128.0527
30
0
0
VERTEX
8
E-SYMBOL
10
160.0772
20
126.8117
30
0
0
VERTEX
8
E-SYMBOL
10
161.1749
20
125.8907
30
0
0
VERTEX
8
E-SYMBOL
10
162.5214
20
125.4006
30
0
0
VERTEX
8
E-SYMBOL
10
163.9544
20
125.4006
30
0
0
VERTEX
8
E-SYMBOL
10
165.3009
20
125.8907
30
0
0
VERTEX
8
E-SYMBOL
10
166.3986
20
126.8117
30
0
0
VERTEX
8
E-SYMBOL
10
167.115
20
128.0527
30
0
0
VERTEX
8
E-SYMBOL
10
167.3639
20
129.4639
30
0
0
SEQEND
8
E-SYMBOL
0
LINE
8
E-CABLE
10
159.1119
20
129.4639
30
0
11
167.3639
21
129.4639
31
0
0
TEXT
8
E-TEXT
7
STANDARD
10
160.7963
20
114.4604
30
0
40
3.2408
1
F1
72
5
73
0
11
165.6795
21
114.4604
31
0
0
TEXT
8
E-TEXT
7
STANDARD
10
143.754
20
109.2091
30
0
40
2.9707
1
Parallel armoured 
72
5
73
0
11
182.7218
21
109.2091
31
0
0
TEXT
8
E-TEXT
7
STANDARD
10
143.105
20
103.9579
30
0
40
2.9707
1
TCL : 50.00 kW - - A
72
5
73
0
11
183.3707
21
103.9579
31
0
0
LINE
8
E-CABLE
10
212.7495
20
163.9719
30
0
11
212.7495
21
157.2204
31
0
0
LINE
8
E-CABLE
10
212.7495
20
157.2204
30
0
11
212.7495
21
156.0951
31
0
0
POLYLINE
8
E-CABLE
66
1
10
0
20
0
30
0
70
0
0
VERTEX
8
E-CABLE
10
211.6242
20
157.2204
30
0
0
VERTEX
8
E-CABLE
10
213.8747
20
154.9698
30
0
0
SEQEND
8
E-CABLE
0
POLYLINE
8
E-CABLE
66
1
10
0
20
0
30
0
70
0
0
VERTEX
8
E-CABLE
10
213.8747
20
157.2204
30
0
0
VERTEX
8
E-CABLE
10
211.6242
20
154.9698
30
0
0
SEQEND
8
E-CABLE
0
LINE
8
E-CABLE
10
212.7495
20
151.2189
30
0
11
210.1239
21
155.3449
31
0
0
TEXT
8
E-TEXT
7
STANDARD
10
216.5004
20
148.5933
30
0
40
2.9707
1
36 kA - 30mA ELCB
72
5
73
0
11
254.9042
21
148.5933
31
0
0
TEXT
8
E-TEXT
7
STANDARD
10
208.3606
20
159.0958
30
0
40
2.9707
1
2
72
5
73
0
11
210.874
21
159.0958
31
0
0
LINE
8
E-CABLE
10
212.7495
20
151.2189
30
0
11
212.7495
21
135.4653
31
0
0
TEXT
8
E-TEXT
7
STANDARD
10
216.5004
20
153.4695
30
0
40
3.2408
1
40A TPN MCB
72
5
73
0
11
247.7895
21
153.4695
31
0
0
TEXT
8
E-TEXT
7
STANDARD
10
234.1295
20
141.4667
30
0
40
2.4306
1
4C 4mm2 CU/XLPE/SWA
72
5
73
0
11
257.76
21
141.4667
31
0
0
TEXT
8
E-TEXT
7
STANDARD
10
234.1295
20
137.7158
30
0
40
2.4306
1
+1C 4mm2 ECC - 25m
72
5
73
0
11
257.76
21
137.7158
31
0
0
POLYLINE
8
E-CABLE
66
1
10
0
20
0
30
0
70
1
0
VERTEX
8
E-CABLE
10
215.3751
20
149.3435
30
0
0
VERTEX
8
E-CABLE
10
215.1752
20
148.8842
30
0
0
VERTEX
8
E-CABLE
10
214.6061
20
148.4948
30
0
0
VERTEX
8
E-CABLE
10
213.7543
20
148.2346
30
0
0
VERTEX
8
E-CABLE
10
212.7495
20
148.1432
30
0
0
VERTEX
8
E-CABLE
10
211.7447
20
148.2346
30
0
0
VERTEX
8
E-CABLE
10
210.8929
20
148.4948
30
0
0
VERTEX
8
E-CABLE
10
210.3237
20
148.8842
30
0
0
VERTEX
8
E-CABLE
10
210.1239
20
149.3435
30
0
0
VERTEX
8
E-CABLE
10
210.3237
20
149.8028
30
0
0
VERTEX
8
E-CABLE
10
210.8929
20
150.1922
30
0
0
VERTEX
8
E-CABLE
10
211.7447
20
150.4524
30
0
0
VERTEX
8
E-CABLE
10
212.7495
20
150.5438
30
0
0
VERTEX
8
E-CABLE
10
213.7543
20
150.4524
30
0
0
VERTEX
8
E-CABLE
10
214.6061
20
150.1922
30
0
0
VERTEX
8
E-CABLE
10
215.1752
20
149.8028
30
0
0
SEQEND
8
E-CABLE
0
CIRCLE
8
E-CABLE
10
212.7495
20
140.7165
30
0
40
1.6879
0
LINE
8
E-CABLE
10
214.4374
20
140.7165
30
0
11
216.5004
21
140.7165
31
0
0
POLYLINE
8
E-SYMBOL
66
1
10
0
20
0
30
0
70
1
0
VERTEX
8
E-SYMBOL
10
216.5004
20
142.967
30
0
0
VERTEX
8
E-SYMBOL
10
225.5025
20
142.967
30
0
0
VERTEX
8
E-SYMBOL
10
225.5025
20
138.466
30
0
0
VERTEX
8
E-SYMBOL
10
216.5004
20
138.466
30
0
0
SEQEND
8
E-SYMBOL
0
TEXT
8
E-TEXT
7
STANDARD
10
217.569
20
139.5912
30
0
40
2.1605
1
kWh
72
5
73
0
11
224.4338
21
139.5912
31
0
0
TEXT
8
E-TEXT
7
STANDARD
10
226.6277
20
139.5912
30
0
40
2.4306
1
CT
72
5
73
0
11
231.2264
21
139.5912
31
0
0
LINE
8
E-CABLE
10
212.7495
20
135.4653
30
0
11
212.7495
21
132.4646
31
0
0
POLYLINE
8
E-SYMBOL
66
1
10
0
20
0
30
0
70
1
0
VERTEX
8
E-SYMBOL
10
207.4982
20
133.2147
30
0
0
VERTEX
8
E-SYMBOL
10
218.0007
20
133.2147
30
0
0
VERTEX
8
E-SYMBOL
10
218.0007
20
124.2126
30
0
0
VERTEX
8
E-SYMBOL
10
207.4982
20
124.2126
30
0
0
SEQEND
8
E-SYMBOL
0
TEXT
8
E-TEXT
7
STANDARD
10
210.7068
20
127.2133
30
0
40
2.9707
1
IT
72
5
73
0
11
214.7921
21
127.2133
31
0
0
TEXT
8
E-TEXT
7
STANDARD
10
210.0206
20
114.4604
30
0
40
3.2408
1
F2
72
5
73
0
11
215.4784
21
114.4604
31
0
0
TEXT
8
E-TEXT
7
STANDARD
10
202.0959
20
109.2091
30
0
40
2.9707
1
Metered IT
72
5
73
0
11
223.403
21
109.2091
31
0
0
TEXT
8
E-TEXT
7
STANDARD
10
192.9345
20
103.9579
30
0
40
2.9707
1
TCL : 10.00 kW - - A
72
5
73
0
11
232.5645
21
103.9579
31
0
0
LINE
8
E-CABLE
10
262.2611
20
163.9719
30
0
11
262.2611
21
157.2204
31
0
0
LINE
8
E-CABLE
10
262.2611
20
157.2204
30
0
11
262.2611
21
156.0951
31
0
0
POLYLINE
8
E-CABLE
66
1
10
0
20
0
30
0
70
0
0
VERTEX
8
E-CABLE
10
261.1358
20
157.2204
30
0
0
VERTEX
8
E-CABLE
10
263.3863
20
154.9698
30
0
0
SEQEND
8
E-CABLE
0
POLYLINE
8
E-CABLE
66
1
10
0
20
0
30
0
70
0
0
VERTEX
8
E-CABLE
10
263.3863
20
157.2204
30
0
0
VERTEX
8
E-CABLE
10
261.1358
20
154.9698
30
0
0
SEQEND
8
E-CABLE
0
LINE
8
E-CABLE
10
262.2611
20
151.2189
30
0
11
259.6354
21
155.3449
31
0
0
TEXT
8
E-TEXT
7
STANDARD
10
266.0119
20
148.5933
30
0
40
2.9707
1
36 kA
72
5
73
0
11
277.5259
21
148.5933
31
0
0
TEXT
8
E-TEXT
7
STANDARD
10
257.7738
20
159.0958
30
0
40
2.9707
1
3
72
5
73
0
11
260.3856
21
159.0958
31
0
0
LINE
8
E-CABLE
10
262.2611
20
151.2189
30
0
11
262.2611
21
135.4653
31
0
0
TEXT
8
E-TEXT
7
STANDARD
10
266.0119
20
153.4695
30
0
40
3.2408
1
80A TPN MCCB
72
5
73
0
11
300.5964
21
153.4695
31
0
0
TEXT
8
E-TEXT
7
STANDARD
10
264.8867
20
141.4667
30
0
40
2.4306
1
4C 16mm2 CU/XLPE/SWA
72
5
73
0
11
306.0061
21
141.4667
31
0
0
TEXT
8
E-TEXT
7
STANDARD
10
264.8867
20
137.7158
30
0
40
2.4306
1
+1C 16mm2 ECC - 20m
72
5
73
0
11
301.6734
21
137.7158
31
0
0
LINE
8
E-CABLE
10
262.2611
20
135.8404
30
0
11
259.6354
21
138.8411
31
0
0
TEXT
8
E-TEXT
7
STANDARD
10
266.0119
20
134.34
30
0
40
2.4306
1
80A TPN ISOLATOR (W/P)
72
5
73
0
11
305.7712
21
134.34
31
0
0
LINE
8
E-CABLE
10
262.2611
20
135.4653
30
0
11
262.2611
21
132.4646
31
0
0
LINE
8
E-CABLE
10
262.2611
20
135.4653
30
0
11
262.2611
21
132.4646
31
0
0
CIRCLE
8
E-SYMBOL
10
262.2611
20
128.7137
30
0
40
3.7509
0
POLYLINE
8
E-CABLE
66
1
10
0
20
0
30
0
70
0
0
VERTEX
8
E-CABLE
10
259.6354
20
131.3393
30
0
0
VERTEX
8
E-CABLE
10
264.8867
20
126.0881
30
0
0
SEQEND
8
E-CABLE
0
POLYLINE
8
E-CABLE
66
1
10
0
20
0
30
0
70
0
0
VERTEX
8
E-CABLE
10
264.8867
20
131.3393
30
0
0
VERTEX
8
E-CABLE
10
259.6354
20
126.0881
30
0
0
SEQEND
8
E-CABLE
0
TEXT
8
E-TEXT
7
STANDARD
10
259.4763
20
114.4604
30
0
40
3.2408
1
F3
72
5
73
0
11
265.0458
21
114.4604
31
0
0
TEXT
8
E-TEXT
7
STANDARD
10
249.1393
20
109.2091
30
0
40
2.9707
1
Local lighting
72
5
73
0
11
275.3828
21
109.2091
31
0
0
TEXT
8
E-TEXT
7
STANDARD
10
242.446
20
103.9579
30
0
40
2.9707
1
TCL : 10.00 kW - - A
72
5
73
0
11
282.0761
21
103.9579
31
0
0
SOLID
8
E-BUSBAR
10
144.4235
20
164.7221
30
0
11
281.0755
21
164.7221
31
0
12
144.4235
22
163.2218
32
0
13
281.0755
23
163.2218
33
0
0
LINE
8
E-CABLE
10
212.7495
20
172.2239
30
0
11
212.7495
21
163.9719
31
0
0
POLYLINE
8
E-CABLE
66
1
10
0
20
0
30
0
70
1
0
VERTEX
8
E-CABLE
10
141.7979
20
195.4793
30
0
0
VERTEX
8
E-CABLE
10
283.7011
20
195.4793
30
0
0
VERTEX
8
E-CABLE
10
283.7011
20
146.3428
30
0
0
VERTEX
8
E-CABLE
10
141.7979
20
146.3428
30
0
0
SEQEND
8
E-CABLE
0
POLYLINE
8
E-CABLE
66
1
10
0
20
0
30
0
70
0
0
VERTEX
8
E-CABLE
10
210.874
20
196.9796
30
0
0
VERTEX
8
E-CABLE
10
211.296
20
196.2295
30
0
0
VERTEX
8
E-CABLE
10
211.4367
20
195.4793
30
0
0
VERTEX
8
E-CABLE
10
211.296
20
194.7291
30
0
0
VERTEX
8
E-CABLE
10
210.874
20
193.9789
30
0
0
SEQEND
8
E-CABLE
0
POLYLINE
8
E-CABLE
66
1
10
0
20
0
30
0
70
0
0
VERTEX
8
E-CABLE
10
214.6249
20
196.9796
30
0
0
VERTEX
8
E-CABLE
10
214.2029
20
196.2295
30
0
0
VERTEX
8
E-CABLE
10
214.0623
20
195.4793
30
0
0
VERTEX
8
E-CABLE
10
214.2029
20
194.7291
30
0
0
VERTEX
8
E-CABLE
10
214.6249
20
193.9789
30
0
0
SEQEND
8
E-CABLE
0
POLYLINE
8
E-CABLE
66
1
10
0
20
0
30
0
70
0
0
VERTEX
8
E-CABLE
10
161.3625
20
147.8432
30
0
0
VERTEX
8
E-CABLE
10
161.7844
20
147.093
30
0
0
VERTEX
8
E-CABLE
10
161.9251
20
146.3428
30
0
0
VERTEX
8
E-CABLE
10
161.7844
20
145.5926
30
0
0
VERTEX
8
E-CABLE
10
161.3625
20
144.8425
30
0
0
SEQEND
8
E-CABLE
0
POLYLINE
8
E-CABLE
66
1
10
0
20
0
30
0
70
0
0
VERTEX
8
E-CABLE
10
165.1133
20
147.8432
30
0
0
VERTEX
8
E-CABLE
10
164.6914
20
147.093
30
0
0
VERTEX
8
E-CABLE
10
164.5507
20
146.3428
30
0
0
VERTEX
8
E-CABLE
10
164.6914
20
145.5926
30
0
0
VERTEX
8
E-CABLE
10
165.1133
20
144.8425
30
0
0
SEQEND
8
E-CABLE
0
POLYLINE
8
E-CABLE
66
1
10
0
20
0
30
0
70
0
0
VERTEX
8
E-CABLE
10
210.874
20
147.8432
30
0
0
VERTEX
8
E-CABLE
10
211.296
20
147.093
30
0
0
VERTEX
8
E-CABLE
10
211.4367
20
146.3428
30
0
0
VERTEX
8
E-CABLE
10
211.296
20
145.5926
30
0
0
VERTEX
8
E-CABLE
10
210.874
20
144.8425
30
0
0
SEQEND
8
E-CABLE
0
POLYLINE
8
E-CABLE
66
1
10
0
20
0
30
0
70
0
0
VERTEX
8
E-CABLE
10
214.6249
20
147.8432
30
0
0
VERTEX
8
E-CABLE
10
214.2029
20
147.093
30
0
0
VERTEX
8
E-CABLE
10
214.0623
20
146.3428
30
0
0
VERTEX
8
E-CABLE
10
214.2029
20
145.5926
30
0
0
VERTEX
8
E-CABLE
10
214.6249
20
144.8425
30
0
0
SEQEND
8
E-CABLE
0
POLYLINE
8
E-CABLE
66
1
10
0
20
0
30
0
70
0
0
VERTEX
8
E-CABLE
10
260.3856
20
147.8432
30
0
0
VERTEX
8
E-CABLE
10
260.8076
20
147.093
30
0
0
VERTEX
8
E-CABLE
10
260.9482
20
146.3428
30
0
0
VERTEX
8
E-CABLE
10
260.8076
20
145.5926
30
0
0
VERTEX
8
E-CABLE
10
260.3856
20
144.8425
30
0
0
SEQEND
8
E-CABLE
0
POLYLINE
8
E-CABLE
66
1
10
0
20
0
30
0
70
0
0
VERTEX
8
E-CABLE
10
264.1365
20
147.8432
30
0
0
VERTEX
8
E-CABLE
10
263.7145
20
147.093
30
0
0
VERTEX
8
E-CABLE
10
263.5739
20
146.3428
30
0
0
VERTEX
8
E-CABLE
10
263.7145
20
145.5926
30
0
0
VERTEX
8
E-CABLE
10
264.1365
20
144.8425
30
0
0
SEQEND
8
E-CABLE
0
POLYLINE
8
E-SYMBOL
66
1
10
0
20
0
30
0
70
1
0
VERTEX
8
E-SYMBOL
10
217.2505
20
223.986
30
0
0
VERTEX
8
E-SYMBOL
10
261.5109
20
223.986
30
0
0
VERTEX
8
E-SYMBOL
10
261.5109
20
197.7298
30
0
0
VERTEX
8
E-SYMBOL
10
217.2505
20
197.7298
30
0
0
SEQEND
8
E-SYMBOL
0
TEXT
8
E-TEXT
7
STANDARD
10
219.5011
20
219.1098
30
0
40
3.2408
1
MDB-1
72
5
73
0
11
234.3211
21
219.1098
31
0
0
TEXT
8
E-TEXT
7
STANDARD
10
219.5011
20
213.8586
30
0
40
2.9707
1
LOC : Main building -
72
5
73
0
11
264.7617
21
213.8586
31
0
0
TEXT
8
E-TEXT
7
STANDARD
10
219.5011
20
209.3575
30
0
40
2.9707
1
TCL : 70.00 kW
72
5
73
0
11
249.4683
21
209.3575
31
0
0
TEXT
8
E-TEXT
7
STANDARD
10
219.5011
20
204.8565
30
0
40
2.9707
1
DF : 1.00
72
5
73
0
11
236.6936
21
204.8565
31
0
0
TEXT
8
E-TEXT
7
STANDARD
10
219.5011
20
200.3554
30
0
40
2.9707
1
MDL : 70.00 kW
72
5
73
0
11
250.6226
21
200.3554
31
0
0
POLYLINE
8
E-SYMBOL
66
1
10
0
20
0
30
0
70
1
0
VERTEX
8
E-SYMBOL
10
189.494
20
185.727
30
0
0
VERTEX
8
E-SYMBOL
10
236.0049
20
185.727
30
0
0
VERTEX
8
E-SYMBOL
10
236.0049
20
172.2239
30
0
0
VERTEX
8
E-SYMBOL
10
189.494
20
172.2239
30
0
0
SEQEND
8
E-SYMBOL
0
TEXT
8
E-TEXT
7
STANDARD
10
192.4947
20
179.7256
30
0
40
3.2408
1
MDB-1
72
5
73
0
11
207.3148
21
179.7256
31
0
0
TEXT
8
E-TEXT
7
STANDARD
10
192.4947
20
174.4744
30
0
40
2.9707
1
MDB - 1600 A
72
5
73
0
11
219.3181
21
174.4744
31
0
0
TEXT
8
E-RESULT
7
STANDARD
10
238.2554
20
181.6011
30
0
40
2.8357
1
7% loaded
72
5
73
0
11
258.1423
21
181.6011
31
0
0
ENDSEC
0
EOF
